<svg xmlns="http://www.w3.org/2000/svg" width="14" height="14" viewBox="0 0 14 14">
    <g fill="none" fill-rule="evenodd">
        <g>
            <g>
                <g>
                    <g>
                        <g>
                            <g>
                                <path d="M0 0L14 0 14 14 0 14z" transform="translate(-475.000000, -1448.000000) translate(423.000000, 1095.000000) translate(10.000000, 223.000000) translate(0.000000, 130.000000) translate(42.000000, 0.000000)"/>
                                <path d="M0 0L14 0 14 14 0 14z" transform="translate(-475.000000, -1448.000000) translate(423.000000, 1095.000000) translate(10.000000, 223.000000) translate(0.000000, 130.000000) translate(42.000000, 0.000000)"/>
                            </g>
                            <path fill="#5E5855" fill-rule="nonzero" d="M7 9.841L10.708 12 9.724 7.93 13 5.192 8.686 4.838 7 1 5.314 4.838 1 5.192 4.276 7.93 3.292 12z" transform="translate(-475.000000, -1448.000000) translate(423.000000, 1095.000000) translate(10.000000, 223.000000) translate(0.000000, 130.000000) translate(42.000000, 0.000000)"/>
                        </g>
                    </g>
                </g>
            </g>
        </g>
    </g>
</svg>
