<svg xmlns="http://www.w3.org/2000/svg" width="24" height="24" viewBox="0 0 24 24">
    <g fill="none" fill-rule="evenodd">
        <g>
            <g>
                <path d="M0 0H24V24H0z" transform="translate(-1263.000000, -773.000000) translate(1263.000000, 773.000000)"/>
                <path fill="#635B57" fill-rule="nonzero" d="M3 3v8h8V3H3zm6 6H5V5h4v4zm-6 4v8h8v-8H3zm6 6H5v-4h4v4zm4-16v8h8V3h-8zm6 6h-4V5h4v4zm-6 4v8h8v-8h-8zm6 6h-4v-4h4v4z" transform="translate(-1263.000000, -773.000000) translate(1263.000000, 773.000000)"/>
            </g>
        </g>
    </g>
</svg>
