<svg xmlns="http://www.w3.org/2000/svg" width="24" height="24" viewBox="0 0 24 24">
    <g fill="none" fill-rule="evenodd">
        <g>
            <g>
                <g>
                    <path d="M0 0L24 0 24 24 0 24z" transform="translate(-1295.000000, -773.000000) translate(1295.000000, 773.000000)"/>
                    <path d="M0 0L24 0 24 24 0 24z" opacity=".87" transform="translate(-1295.000000, -773.000000) translate(1295.000000, 773.000000)"/>
                </g>
                <path fill="#B4B4B4" fill-rule="nonzero" d="M3 13h2v-2H3v2zm0 4h2v-2H3v2zm0-8h2V7H3v2zm4 4h14v-2H7v2zm0 4h14v-2H7v2zM7 7v2h14V7H7zm-4 6h2v-2H3v2zm0 4h2v-2H3v2zm0-8h2V7H3v2zm4 4h14v-2H7v2zm0 4h14v-2H7v2zM7 7v2h14V7H7z" transform="translate(-1295.000000, -773.000000) translate(1295.000000, 773.000000)"/>
            </g>
        </g>
    </g>
</svg>
