<svg xmlns="http://www.w3.org/2000/svg" width="14" height="14" viewBox="0 0 14 14">
    <g fill="none" fill-rule="evenodd">
        <g>
            <g>
                <g>
                    <g>
                        <g>
                            <g>
                                <path d="M0 0L14 0 14 14 0 14z" transform="translate(-489.000000, -1448.000000) translate(423.000000, 1095.000000) translate(10.000000, 223.000000) translate(0.000000, 130.000000) translate(56.000000, 0.000000)"/>
                                <path d="M0 0L14 0 14 14 0 14z" transform="translate(-489.000000, -1448.000000) translate(423.000000, 1095.000000) translate(10.000000, 223.000000) translate(0.000000, 130.000000) translate(56.000000, 0.000000)"/>
                            </g>
                            <path fill-rule="nonzero" stroke="#5E5855" d="M7 2.243l1.348 3.07 3.395.277-2.578 2.156.781 3.232L7 9.262l-2.946 1.716.781-3.232L2.257 5.59l3.395-.278L7 2.243z" transform="translate(-489.000000, -1448.000000) translate(423.000000, 1095.000000) translate(10.000000, 223.000000) translate(0.000000, 130.000000) translate(56.000000, 0.000000)"/>
                        </g>
                    </g>
                </g>
            </g>
        </g>
    </g>
</svg>
