<svg xmlns="http://www.w3.org/2000/svg" width="39" height="36" viewBox="0 0 39 36">
    <g fill="none" fill-rule="evenodd">
        <g fill="#94BF52" fill-rule="nonzero" stroke="#94BF52" stroke-width=".5">
            <g>
                <path d="M5.795 21.23c-2.689-2.46-4.204-5.971-4.204-9.679 0-2.653.985-5.112 2.84-7.024 1.819-1.873 4.205-2.888 6.781-2.888 2.576 0 4.962 1.015 6.78 2.927 1.364 1.366 2.311 3.083 2.728 4.956l.19.82-5.342-1.874-.53 1.561 7.424 2.615L25 4.995l-1.515-.546-1.402 4.175c-.53-1.99-1.59-3.824-3.03-5.268C17.008 1.21 14.205 0 11.213 0 8.22 0 5.416 1.21 3.257 3.395 1.174 5.58 0 8.468 0 11.551c0 4.176 1.742 8.156 4.735 10.927l1.401 1.327c.152.156.341.195.53.195.228 0 .417-.078.607-.273.303-.351.265-.859-.076-1.17l-1.402-1.328z" transform="translate(-575.000000, -1507.000000) translate(575.000000, 1507.000000)"/>
                <path d="M35.67 4.368C33.5 2.2 30.635 1 27.577 1c0 0 0 0 0 0-1.975 0-3.91.503-5.614 1.471-.388.233-.542.697-.31 1.123.232.387.735.503 1.123.31 1.47-.813 3.136-1.278 4.8-1.278 0 0 0 0 0 0 2.633 0 5.072 1.007 6.97 2.904 1.858 1.858 2.865 4.336 2.865 6.93 0 3.678-1.588 7.163-4.298 9.602L19.68 34.102l-6.737-6.078h5.111v-1.626H10v8.015h1.626V29.07l7.473 6.736c.154.155.348.194.542.194.193 0 .387-.077.542-.194l13.976-12.505C37.22 20.552 39 16.603 39 12.46c.039-3.06-1.161-5.924-3.33-8.093z" transform="translate(-575.000000, -1507.000000) translate(575.000000, 1507.000000)"/>
            </g>
        </g>
    </g>
</svg>
