<svg xmlns="http://www.w3.org/2000/svg" width="25" height="25" viewBox="0 0 25 25">
    <g fill="none" fill-rule="evenodd">
        <g>
            <g>
                <g>
                    <path d="M0 0L25 0 25 25 0 25z" transform="translate(-876.000000, -869.000000) translate(871.000000, 864.000000) translate(5.000000, 5.000000)"/>
                    <path fill="#F8931F" fill-rule="nonzero" d="M17.188 3.125c-1.813 0-3.553.844-4.688 2.177-1.135-1.333-2.875-2.177-4.688-2.177-3.208 0-5.729 2.52-5.729 5.73 0 3.937 3.542 7.145 8.907 12.02l1.51 1.365 1.51-1.375c5.365-4.865 8.907-8.073 8.907-12.01 0-3.21-2.521-5.73-5.73-5.73z" transform="translate(-876.000000, -869.000000) translate(871.000000, 864.000000) translate(5.000000, 5.000000)"/>
                </g>
            </g>
        </g>
    </g>
</svg>
