<svg xmlns="http://www.w3.org/2000/svg" width="24" height="24" viewBox="0 0 24 24">
<g fill="none" fill-rule="evenodd">
    <g>
        <g>
            <g>
                <g>
                    <g>
                        <path d="M0 0H24V24H0z" transform="translate(-1037.000000, -1720.000000) translate(-1.000000, 1701.000000) translate(1019.000000, 0.000000) translate(19.000000, 19.000000)"/>
                    </g>
                    <g fill="#000" fill-rule="nonzero">
                        <path d="M0 6.098C0 5.363.128 4.67.383 4.02c.256-.65.608-1.217 1.058-1.7.449-.484.966-.903 1.552-1.257C3.58.708 4.21.442 4.883.265 5.558.088 6.245 0 6.947 0 8.023 0 9.024.227 9.95.68c.927.453 1.68 1.112 2.258 1.976.578.865.868 1.842.868 2.932 0 .654-.065 1.294-.194 1.92-.13.627-.333 1.23-.613 1.809-.279.579-.62 1.088-1.021 1.527-.402.44-.896.79-1.481 1.052-.586.262-1.23.394-1.931.394-.463 0-.923-.109-1.38-.327-.456-.217-.783-.517-.98-.898-.068.265-.164.648-.286 1.149-.122.5-.203.824-.24.97-.038.146-.108.388-.21.726-.102.337-.19.579-.265.725l-.327.638c-.142.28-.299.544-.47.792-.17.249-.381.543-.633.884L2.902 17l-.092-.102c-.102-1.07-.153-1.71-.153-1.92 0-.628.073-1.33.22-2.11.146-.78.372-1.76.68-2.938.306-1.178.483-1.87.53-2.074-.217-.442-.326-1.018-.326-1.726 0-.565.177-1.097.531-1.594.355-.497.804-.746 1.349-.746.415 0 .738.138.97.414.231.275.347.624.347 1.047 0 .45-.15 1.1-.45 1.95-.3.852-.45 1.489-.45 1.911 0 .43.154.785.46 1.068.308.282.679.424 1.114.424.375 0 .722-.086 1.042-.256.32-.17.587-.401.802-.694.215-.293.405-.616.572-.97.167-.354.296-.73.388-1.13.093-.398.16-.776.205-1.133.044-.357.066-.696.066-1.017 0-1.178-.373-2.095-1.118-2.753-.746-.657-1.718-.986-2.917-.986-1.362 0-2.499.441-3.412 1.324-.912.882-1.369 2-1.369 3.355 0 .3.043.59.128.869s.177.5.276.664c.098.164.19.319.275.465.085.147.128.25.128.312 0 .19-.051.44-.153.746-.103.307-.229.46-.379.46-.013 0-.071-.01-.173-.031-.348-.102-.656-.293-.925-.572C.8 8.977.592 8.656.445 8.29.3 7.927.188 7.56.113 7.188.04 6.817.001 6.454.001 6.1L0 6.098z" transform="translate(-1037.000000, -1720.000000) translate(-1.000000, 1701.000000) translate(1019.000000, 0.000000) translate(19.000000, 19.000000) translate(5.000000, 4.000000)"/>
                    </g>
                </g>
            </g>
        </g>
    </g>
</g>
</svg>
