<svg xmlns="http://www.w3.org/2000/svg" width="24" height="24" viewBox="0 0 24 24">
    <g fill="none" fill-rule="evenodd" >
        <g>
            <g>
                <g>
                    <g>
                        <g>
                            <path d="M0 0H24V24H0z" transform="translate(-1157.000000, -1720.000000) translate(-1.000000, 1701.000000) translate(1019.000000, 0.000000) translate(139.000000, 19.000000)"/>
                        </g>
                        <g fill="#000" fill-rule="nonzero">
                            <path d="M17 8.5c0 1.69-.018 2.859-.055 3.508-.074 1.534-.531 2.723-1.373 3.564-.84.842-2.028 1.3-3.564 1.373-.65.036-1.819.055-3.508.055-1.69 0-2.86-.018-3.509-.055-1.534-.074-2.722-.531-3.563-1.373-.842-.84-1.3-2.028-1.373-3.564C.018 11.36 0 10.19 0 8.5 0 6.81.018 5.64.055 4.99.13 3.457.586 2.27 1.428 1.428 2.268.586 3.456.128 4.99.055 5.64.02 6.81 0 8.5 0s2.859.018 3.508.055c1.534.074 2.723.531 3.564 1.373.842.84 1.3 2.028 1.373 3.563.037.65.055 1.819.055 3.509zM9.347 1.522l-.847.006-.847-.006c-.513-.003-.902-.003-1.168 0-.266.003-.622.015-1.068.033-.447.019-.827.056-1.14.111-.315.056-.577.124-.791.205-.369.148-.694.362-.975.642-.28.28-.494.606-.642.975-.081.214-.15.477-.205.79-.055.314-.092.695-.11 1.14-.02.448-.03.803-.034 1.069-.004.265-.003.655 0 1.167l.006.848-.006.847c-.003.512-.003.901 0 1.167s.015.622.033 1.069c.019.446.056.826.111 1.14.056.314.124.577.205.79.148.369.362.695.642.975s.605.494.975.642c.214.082.477.15.79.205.314.055.695.092 1.14.111.448.018.803.03 1.069.033.265.004.654.003 1.168 0l.847-.006.847.006c.512.003.902.003 1.168 0 .265-.003.621-.015 1.068-.033.446-.018.826-.055 1.14-.111.313-.055.577-.124.79-.205.37-.148.695-.362.975-.642s.495-.605.642-.974c.082-.214.15-.478.205-.792.055-.313.092-.694.111-1.14.019-.446.03-.802.033-1.068.004-.265.003-.654 0-1.167l-.006-.847.006-.848c.003-.512.003-.901 0-1.167s-.014-.622-.033-1.068c-.018-.447-.055-.827-.111-1.14-.055-.313-.124-.577-.205-.791-.147-.369-.362-.695-.642-.975s-.606-.494-.974-.642c-.214-.082-.478-.15-.791-.205-.314-.055-.695-.092-1.14-.11-.447-.02-.803-.03-1.068-.034-.266-.004-.654-.004-1.168 0zm2.242 3.89c.848.848 1.273 1.877 1.273 3.087 0 1.21-.425 2.24-1.273 3.088-.848.849-1.878 1.273-3.088 1.273-1.21 0-2.24-.424-3.088-1.273C4.563 10.74 4.14 9.71 4.14 8.5c0-1.21.424-2.24 1.272-3.088.849-.848 1.878-1.273 3.088-1.273 1.211 0 2.24.425 3.089 1.273zm-1.085 5.091c.553-.553.83-1.221.83-2.003 0-.783-.277-1.45-.83-2.004-.553-.553-1.221-.83-2.004-.83-.782 0-1.45.277-2.003.83-.553.553-.83 1.221-.83 2.004 0 .782.277 1.45.83 2.003.553.553 1.221.83 2.003.83.783 0 1.45-.277 2.004-.83zm3.254-7.26c.2.199.3.438.3.718 0 .28-.1.52-.3.72-.2.198-.439.298-.719.298-.28 0-.52-.1-.718-.299-.2-.2-.3-.439-.3-.719 0-.28.1-.52.3-.719.199-.199.438-.299.718-.299.28.002.52.101.72.3z" transform="translate(-1157.000000, -1720.000000) translate(-1.000000, 1701.000000) translate(1019.000000, 0.000000) translate(139.000000, 19.000000) translate(4.000000, 4.000000)"/>
                        </g>
                    </g>
                </g>
            </g>
        </g>
    </g>
</svg>
