<svg xmlns="http://www.w3.org/2000/svg" width="24" height="24" viewBox="0 0 24 24">
    <g fill="none" fill-rule="evenodd">
        <g>
            <g>
                <g>
                    <path d="M0 0L24 0 24 24 0 24z" transform="translate(-661.000000, -880.000000) translate(651.000000, 870.000000) translate(10.000000, 10.000000)"/>
                    <path fill="#94BF52" fill-rule="nonzero" d="M12 2C6.48 2 2 6.48 2 12s4.48 10 10 10 10-4.48 10-10S17.52 2 12 2z" transform="translate(-661.000000, -880.000000) translate(651.000000, 870.000000) translate(10.000000, 10.000000)"/>
                    <path fill="#FFF" fill-rule="nonzero" d="M16.59 7.58L10 14.17 7.41 11.59 6 13 10 17 18 9z" transform="translate(-661.000000, -880.000000) translate(651.000000, 870.000000) translate(10.000000, 10.000000)"/>
                </g>
            </g>
        </g>
    </g>
</svg>
