<svg xmlns="http://www.w3.org/2000/svg" width="25" height="25" viewBox="0 0 25 25">
    <g fill="none" fill-rule="evenodd">
        <g>
            <g>
                <g>
                    <path d="M0 0L25 0 25 25 0 25z" transform="translate(-471.000000, -869.000000) translate(466.000000, 864.000000) translate(5.000000, 5.000000)"/>
                    <path fill="#5E5855" fill-rule="nonzero" d="M17.188 3.125c-1.813 0-3.553.844-4.688 2.177-1.135-1.333-2.875-2.177-4.688-2.177-3.208 0-5.729 2.52-5.729 5.73 0 3.937 3.542 7.145 8.907 12.02l1.51 1.365 1.51-1.375c5.365-4.865 8.907-8.073 8.907-12.01 0-3.21-2.521-5.73-5.73-5.73zm-4.584 16.198l-.104.104-.104-.104c-4.959-4.49-8.23-7.458-8.23-10.469 0-2.083 1.563-3.646 3.646-3.646 1.605 0 3.167 1.032 3.72 2.459h1.947c.542-1.427 2.104-2.459 3.709-2.459 2.083 0 3.645 1.563 3.645 3.646 0 3.01-3.27 5.98-8.229 10.469z" transform="translate(-471.000000, -869.000000) translate(466.000000, 864.000000) translate(5.000000, 5.000000)"/>
                </g>
            </g>
        </g>
    </g>
</svg>
