<svg xmlns="http://www.w3.org/2000/svg" width="200" height="50" viewBox="0 0 200 50">
    <g fill="none" fill-rule="evenodd">
        <g fill="#5B8D31">
            <g>
                <path d="M90.884 40.87c-.69.726-1.57 1.088-2.645 1.088-1.074 0-1.96-.362-2.659-1.088-.698-.724-1.047-1.696-1.047-2.914 0-1.217.349-2.188 1.047-2.914.698-.724 1.585-1.087 2.659-1.087 1.074 0 1.956.363 2.645 1.087.69.726 1.034 1.697 1.034 2.914 0 1.218-.344 2.19-1.034 2.914zm1.437-9.4c-1.2-.635-2.56-.953-4.082-.953-1.522 0-2.887.318-4.096.954-1.208.636-2.153 1.517-2.833 2.645-.68 1.128-1.02 2.408-1.02 3.84 0 1.433.34 2.713 1.02 3.84.68 1.13 1.625 2.011 2.833 2.646 1.209.636 2.574.954 4.096.954 1.521 0 2.883-.318 4.082-.954 1.2-.635 2.14-1.517 2.82-2.645.68-1.128 1.02-2.408 1.02-3.84 0-1.433-.34-2.713-1.02-3.84-.68-1.13-1.62-2.01-2.82-2.646zm67.842 13.711h4.19V30.732h-4.19v14.45zM79.14 41.985c-.224.054-.443.08-.658.08-.574 0-1.017-.165-1.33-.496-.313-.332-.47-.801-.47-1.41v-14.1h-4.19V40.4c0 1.594.457 2.825 1.37 3.694.913.868 2.185 1.302 3.814 1.302.752 0 1.477-.117 2.175-.35l-.188-3.25c-.125.073-.3.136-.523.189zm44.483-36.286c-2.217 0-4.146.79-5.577 2.282-1.405 1.465-2.117 3.43-2.117 5.842v7.144h4.23v-7.144c0-1.29.313-2.26.94-2.914.626-.653 1.467-.98 2.524-.98.95 0 1.674.282 2.176.845.5.564.751 1.42.751 2.565v7.628h4.23v-7.628c0-2.207-.613-4.015-1.822-5.376-.918-1.032-2.59-2.264-5.335-2.264zM66.7 2.462c-1.343-.554-2.837-.832-4.485-.832-1.97 0-3.742.42-5.317 1.262-1.576.842-2.807 2.01-3.693 3.505-.887 1.495-1.33 3.2-1.33 5.116 0 1.987.43 3.702 1.29 5.143.86 1.441 2.014 2.538 3.464 3.29 1.45.752 3.044 1.128 4.78 1.128 2.06 0 3.742-.483 5.05-1.45v1.128h3.276v-9.696H65.76v5.103c-1.04.86-2.32 1.29-3.841 1.29-1.02 0-1.96-.229-2.82-.686-.86-.456-1.545-1.132-2.055-2.027-.51-.895-.765-1.978-.765-3.25 0-1.217.26-2.291.779-3.223.519-.93 1.244-1.651 2.175-2.162.931-.51 1.996-.765 3.196-.765 1.898 0 3.518.708 4.861 2.122l2.793-2.578c-.913-1.057-2.04-1.862-3.384-2.418zm19.794 10.636c.036-1.2.385-2.14 1.047-2.82.663-.68 1.522-1.021 2.579-1.021.859 0 1.593.224 2.202.671.608.448 1.011 1.048 1.208 1.8l-7.036 1.37zm10.085-3.613c-.672-1.1-1.571-1.942-2.7-2.524-1.127-.582-2.38-.873-3.76-.873-1.468 0-2.788.318-3.96.954-1.174.635-2.096 1.522-2.767 2.659-.671 1.136-1.007 2.412-1.007 3.826 0 1.433.34 2.713 1.02 3.84.68 1.13 1.648 2.01 2.901 2.646 1.253.636 2.695.954 4.324.954 2.614 0 4.6-.78 5.962-2.337l-2.23-2.417c-.5.483-1.042.837-1.624 1.06-.582.225-1.249.337-2 .337-.95 0-1.75-.18-2.404-.538-.654-.358-1.133-.895-1.437-1.611l10.689-2.068c0-1.504-.336-2.807-1.007-3.908zm52.524 16.225c-1.276 0-2.407.224-3.391.67-.984.447-1.805 1.108-2.462 1.983v-2.325h-4.293v19.143h4.43V34.406c0-1.622.406-2.848 1.217-3.677.811-.83 1.892-1.245 3.24-1.245 1.277 0 2.275.388 2.995 1.162.72.775 1.08 1.928 1.08 3.46V45.18h4.43V33.97c0-2.643-.637-4.68-1.913-6.112-1.277-1.431-3.054-2.147-5.333-2.147zM108.65 37.876c0 1.29-.305 2.26-.913 2.914-.61.654-1.415.98-2.417.98-1.952 0-2.928-1.163-2.928-3.49v-7.548h-4.19v8.164c0 2.15.555 3.77 1.666 4.861 1.11 1.093 2.614 1.64 4.512 1.64.895 0 1.727-.167 2.497-.498.77-.331 1.433-.81 1.988-1.437v1.72h3.974v-14.45h-4.19v7.144zm-5.882-24.778c.036-1.2.385-2.14 1.048-2.82.662-.68 1.521-1.021 2.578-1.021.86 0 1.593.224 2.202.671.608.448 1.011 1.048 1.209 1.8l-7.037 1.37zm10.085-3.613c-.672-1.1-1.571-1.942-2.7-2.524-1.127-.582-2.381-.873-3.76-.873-1.467 0-2.788.318-3.96.954-1.174.635-2.095 1.522-2.767 2.659-.671 1.136-1.007 2.412-1.007 3.826 0 1.433.34 2.713 1.02 3.84.68 1.13 1.648 2.01 2.901 2.646 1.253.636 2.695.954 4.324.954 2.614 0 4.601-.78 5.962-2.337l-2.229-2.417c-.502.483-1.043.837-1.625 1.06-.582.225-1.249.337-2 .337-.95 0-1.75-.18-2.404-.538-.654-.358-1.133-.895-1.437-1.611l10.689-2.068c0-1.504-.336-2.807-1.007-3.908zm77.103 25.007c.662-.68 1.521-1.02 2.578-1.02.86 0 1.593.224 2.202.67.609.449 1.012 1.048 1.209 1.8l-7.036 1.37c.035-1.2.384-2.14 1.047-2.82zm5.196 6.996c-.581.224-1.248.336-2 .336-.95 0-1.75-.179-2.404-.537-.654-.358-1.133-.895-1.437-1.612L200 37.607c0-1.503-.335-2.806-1.007-3.907-.672-1.101-1.571-1.943-2.699-2.525-1.128-.581-2.382-.873-3.76-.873-1.468 0-2.789.318-3.961.954-1.173.636-2.095 1.522-2.766 2.659-.672 1.137-1.008 2.412-1.008 3.827 0 1.432.34 2.712 1.021 3.84.68 1.128 1.647 2.01 2.9 2.645 1.253.636 2.695.954 4.324.954 2.615 0 4.602-.779 5.962-2.337l-2.228-2.416c-.502.483-1.044.837-1.626 1.06zM76.682 13.93c0-1.343.34-2.35 1.02-3.021.68-.672 1.62-1.007 2.82-1.007.162 0 .475.017.94.053V6.088c-1.11 0-2.09.179-2.94.537-.85.359-1.527.886-2.028 1.585V6.303h-4.002v14.664h4.19V13.93zm48.942 26.94c-.699.726-1.576 1.088-2.633 1.088-1.074 0-1.96-.362-2.659-1.088-.698-.724-1.047-1.696-1.047-2.914 0-1.217.35-2.188 1.047-2.914.699-.724 1.585-1.087 2.66-1.087 1.056 0 1.933.363 2.632 1.087.698.726 1.047 1.697 1.047 2.914 0 1.218-.35 2.19-1.047 2.914zm.966-8.607c-1.038-1.164-2.48-1.746-4.324-1.746-1.36 0-2.591.305-3.693.913-1.1.61-1.965 1.477-2.591 2.606-.627 1.127-.94 2.435-.94 3.92 0 1.487.313 2.794.94 3.922.626 1.128 1.49 1.996 2.591 2.605 1.102.608 2.332.913 3.693.913 1.97 0 3.474-.627 4.512-1.88v1.665h4.002V26.06h-4.19v6.204zM41.082 26.91H9.472c-4.057 0-7.357-3.3-7.357-7.358 0-3.144 1.996-5.94 4.966-6.957l.798-.273-.09-.84c-.013-.13-.02-.275-.02-.444 0-2.93 2.384-5.313 5.314-5.313.995 0 1.966.277 2.808.803l.842.524.577-.806c1.854-2.587 4.858-4.131 8.035-4.131 4.752 0 8.834 3.382 9.706 8.043l.292 1.562 1.328-.872c.52-.343 1.127-.524 1.754-.524 1.765 0 3.2 1.435 3.2 3.2 0 .334-.05.663-.153.979l-.361 1.115 1.145.245c2.555.547 4.41 2.843 4.41 5.46 0 3.08-2.505 5.587-5.584 5.587zm-2.858 8.2l.032-.12c.273-.982.807-1.434.939-1.447.131.086.356.749.084 1.729l-.474 1.535 1.42-.418c.038-.012.077-.022.116-.032.987-.255 1.645-.018 1.723.09-.009.157-.47.683-1.457.938l-1.565.36 1.073 1.018c.029.026.057.054.085.083.714.727.838 1.416.784 1.537-.141.07-.827-.065-1.54-.792-.03-.03-.058-.06-.085-.09l-1-1.088-.385 1.556c-.273.982-.808 1.434-.94 1.447-.131-.086-.356-.75-.084-1.73l.475-1.534-1.42.418-.117.032c-.987.255-1.645.018-1.722-.09.008-.157.47-.683 1.462-.939.037-.01.075-.019.112-.027l1.448-.32-1.07-1.026c-.029-.028-.058-.055-.09-.088-.713-.727-.837-1.416-.782-1.536.142-.07.827.066 1.543.795.028.028.055.057.081.086l1.001 1.088.353-1.435zm-12.322 4.548c-.351 1.004-.853 1.854-1.427 2.396l-1.185 1.12 1.63.02c.79.01 1.736.295 2.674.795-1.046.199-2.032.188-2.788-.037l-1.563-.466.798 1.422c.386.69.612 1.65.648 2.713-.694-.806-1.178-1.666-1.36-2.434L22.95 43.6l-.833 1.402c-.403.68-1.122 1.355-2.025 1.918.351-1.004.853-1.854 1.427-2.396l1.185-1.12-1.632-.021c-.789-.01-1.734-.294-2.673-.795 1.046-.197 2.033-.187 2.79.039l1.563.465-.798-1.422c-.387-.689-.613-1.649-.65-2.713.695.807 1.18 1.666 1.363 2.434l.378 1.586.833-1.401c.403-.68 1.121-1.355 2.024-1.918zm-11.864-6.515c.108.043.46.22.44.68l-.05 1.193 1.192-.072c.46-.025.644.32.69.427.045.107.167.48-.172.792l-.878.808.893.792c.345.305.23.68.186.789-.043.108-.22.451-.68.44l-1.193-.05.071 1.191c.028.46-.319.644-.426.69-.107.044-.48.167-.792-.172l-.808-.878-.792.894c-.305.344-.681.23-.789.185-.107-.043-.458-.221-.439-.68l.05-1.194-1.192.073c-.465.028-.644-.32-.69-.427-.045-.107-.167-.48.171-.792l.88-.808-.895-.792c-.344-.305-.229-.68-.185-.789.043-.107.217-.453.68-.439l1.194.05-.073-1.192c-.028-.46.32-.644.427-.69.106-.045.48-.167.792.172l.809.878.79-.894c.306-.343.682-.229.79-.185zm11.135-1.388c.186.073.395.154.629.248 1.239.498 1.532 1.196 1.656 1.812.08.396.198.774.381 1.198-.07-.01-.137-.022-.205-.035-.06-.01-.117-.022-.184-.037l-.094-.022-.099-.023-.073-.02c-.036-.01-.072-.019-.106-.03l-.127-.04c-.043-.014-.084-.028-.14-.05-.075-.026-.149-.056-.218-.086-.05-.021-.1-.045-.148-.068l-.057-.027c-.047-.023-.095-.048-.153-.08-.057-.03-.112-.062-.177-.103-.064-.038-.127-.078-.18-.114l-.039-.026c-.048-.034-.097-.068-.155-.112-.066-.048-.131-.1-.193-.15-.06-.049-.12-.1-.18-.152-.273-.242-.67-.76-.902-1.469-.003-.31-.004-.621-.005-.932.23.105.48.207.769.318zm18.538-17.669c.02-.186.03-.374.03-.563 0-2.93-2.385-5.314-5.316-5.314-.554 0-1.098.086-1.617.251C35.284 3.486 30.66 0 25.345 0c-3.546 0-6.913 1.584-9.182 4.278-.962-.439-2.012-.668-3.08-.668-4.044 0-7.344 3.248-7.427 7.273C2.243 12.38 0 15.77 0 19.553c0 5.223 4.25 9.472 9.473 9.472h2.049v2.538c-.422-.072-.865-.028-1.285.15-.744.317-1.246.97-1.365 1.74-.766.134-1.411.648-1.714 1.397-.302.75-.194 1.567.265 2.196-.447.636-.54 1.455-.223 2.2.317.743.97 1.244 1.74 1.364.134.766.647 1.41 1.398 1.714.283.114.577.17.866.17.475 0 .938-.15 1.328-.435.637.447 1.456.54 2.2.222.744-.316 1.246-.97 1.365-1.738.766-.135 1.411-.648 1.714-1.398.302-.75.193-1.567-.265-2.196.447-.636.539-1.455.222-2.199-.316-.744-.97-1.245-1.739-1.365-.134-.766-.648-1.41-1.397-1.713-.414-.167-.848-.204-1.26-.131v-2.516h9.122c-.02.739-.037 1.477-.043 2.215-.001 1.09-.017 2.181-.008 3.272.006 1.09.023 2.182.046 3.272.002.185.005.369.01.553-.255-.315-.53-.627-.838-.926-.279-.27-.678-.351-1.042-.209s-.603.472-.625.86c-.062 1.12.05 2.176.319 3.08-.942-.064-1.996.058-3.074.365-.374.106-.643.412-.702.798-.059.386.107.758.432.97.939.615 1.909 1.046 2.826 1.265-.526.783-.946 1.757-1.22 2.845-.095.376.034.762.34 1.006.304.243.708.287 1.057.112 1-.507 1.86-1.13 2.507-1.816.415.847 1.049 1.699 1.854 2.48.188.182.43.278.678.278.122 0 .245-.023.364-.07.364-.141.603-.47.625-.859.062-1.12-.05-2.176-.319-3.08.942.067 1.995-.058 3.074-.365.374-.106.643-.412.702-.798.059-.386-.107-.758-.432-.97-.939-.615-1.909-1.046-2.826-1.265.526-.783.946-1.757 1.22-2.845.095-.377-.034-.762-.34-1.006-.304-.245-.71-.287-1.057-.112-.634.321-1.202.693-1.704 1.094.031-.462.041-.923.047-1.385.02-.88.03-1.759.037-2.639.03.025.056.049.086.073.086.07.171.137.246.192.064.05.13.096.197.142l.102.069c.068.044.134.086.196.123.087.055.173.104.248.144.076.042.152.082.228.119.03.016.06.03.09.042.056.027.114.054.175.08.102.043.204.084.292.116.066.025.133.048.201.07l.127.04c.053.017.108.033.163.047l.099.027c.05.013.101.026.153.037l.102.024c.084.019.168.036.247.05.4.073.83.12 1.322.142l.044.001c.364 0 .707-.188.902-.5.202-.323.215-.732.034-1.07-.362-.668-.548-1.134-.643-1.61-.103-.516-.42-2.087-2.62-2.972-.24-.097-.455-.18-.647-.254-1.115-.432-1.12-.45-1.276-.914-.017-.052-.045-.176-.076-.338H36.28v4.135c-.06-.022-.119-.045-.178-.063-.781-.239-1.493-.115-1.956.339-.463.454-.6 1.164-.375 1.949.097.339.258.685.471 1.018-.355.176-.67.39-.929.63-.596.556-.846 1.235-.684 1.862.162.628.709 1.101 1.5 1.3.342.085.723.118 1.117.1-.025.397.002.777.081 1.12.184.795.647 1.35 1.272 1.524.133.037.27.055.41.055.503 0 1.02-.244 1.465-.705.244-.253.463-.565.646-.917.33.22.673.387 1.01.49.78.238 1.493.115 1.955-.339.463-.454.6-1.164.375-1.95-.097-.338-.257-.683-.47-1.017.354-.176.67-.39.928-.63.597-.556.846-1.235.684-1.863-.161-.627-.709-1.1-1.5-1.298-.341-.086-.72-.12-1.117-.102.025-.395-.002-.776-.08-1.119-.184-.795-.648-1.351-1.272-1.524-.492-.138-1.022-.015-1.502.33v-3.325h2.952c4.245 0 7.699-3.455 7.699-7.701 0-3.253-2.079-6.147-5.07-7.238zm131.73 15.828c-2.218 0-4.146.789-5.577 2.281-1.405 1.465-2.117 3.43-2.117 5.842v7.144h4.23v-7.144c0-1.29.312-2.26.94-2.914.626-.653 1.467-.98 2.524-.98.948 0 1.674.282 2.175.846.501.564.752 1.42.752 2.565v7.627h4.23v-7.627c0-2.208-.613-4.016-1.822-5.376-.919-1.033-2.59-2.264-5.335-2.264zm-115.993.617c.913-.51 1.951-.766 3.115-.766 1.88 0 3.455.735 4.727 2.203l2.793-2.579c-.896-1.074-2-1.897-3.317-2.47-1.316-.573-2.789-.86-4.418-.86-1.933 0-3.675.416-5.223 1.25-1.55.831-2.767 1.986-3.653 3.464-.886 1.477-1.329 3.146-1.329 5.008 0 1.863.443 3.532 1.33 5.009.885 1.477 2.103 2.632 3.652 3.464 1.548.833 3.28 1.25 5.196 1.25 1.63 0 3.107-.287 4.432-.86 1.324-.573 2.434-1.405 3.33-2.498l-2.793-2.578c-1.272 1.486-2.847 2.229-4.727 2.229-1.164 0-2.202-.255-3.115-.765-.913-.51-1.625-1.222-2.135-2.136-.51-.912-.766-1.95-.766-3.115 0-1.164.255-2.202.766-3.115.51-.913 1.222-1.625 2.135-2.135zm104.69-5.419c-.483-.43-1.11-.644-1.88-.644-.77 0-1.396.224-1.88.671-.483.448-.725 1.003-.725 1.665 0 .663.242 1.218.725 1.665.484.448 1.11.672 1.88.672.77 0 1.397-.229 1.88-.685.484-.457.726-1.034.726-1.732 0-.645-.242-1.182-.726-1.612z" transform="translate(-44.000000, -28.000000) translate(44.000000, 28.000000)"/>
            </g>
        </g>
    </g>
</svg>
