<svg xmlns="http://www.w3.org/2000/svg" width="24" height="24" viewBox="0 0 24 24">
    <g fill="none" fill-rule="evenodd" >
        <g>
            <g>
                <g>
                    <g>
                        <g>
                            <path d="M0 0H24V24H0z" transform="translate(-1097.000000, -1720.000000) translate(-1.000000, 1701.000000) translate(1019.000000, 0.000000) translate(79.000000, 19.000000)"/>
                        </g>
                        <g fill="#000" fill-rule="nonzero">
                            <path d="M20 1.876c-.567.805-1.252 1.492-2.056 2.06.009.115.013.287.013.518 0 1.068-.16 2.135-.483 3.2-.321 1.066-.81 2.088-1.466 3.066-.655.978-1.436 1.843-2.341 2.596-.905.753-1.997 1.354-3.274 1.801-1.277.448-2.644.672-4.099.672-2.292 0-4.39-.596-6.294-1.788.296.033.626.05.99.05 1.903 0 3.6-.568 5.089-1.703-.889-.017-1.684-.282-2.386-.796-.702-.514-1.184-1.17-1.447-1.967.28.04.537.061.774.061.364 0 .724-.045 1.079-.135-.948-.19-1.732-.648-2.354-1.376C1.123 7.408.812 6.563.812 5.6v-.049c.575.313 1.192.481 1.852.506-.558-.362-1.003-.835-1.332-1.419-.33-.584-.495-1.217-.495-1.9 0-.723.186-1.393.559-2.01 1.023 1.225 2.27 2.206 3.737 2.941 1.468.736 3.039 1.146 4.714 1.228-.068-.313-.101-.617-.101-.913 0-1.102.4-2.041 1.2-2.818C11.744.39 12.71 0 13.844 0c1.184 0 2.182.42 2.994 1.258.922-.173 1.79-.494 2.602-.962-.313.946-.914 1.678-1.802 2.196.786-.083 1.573-.288 2.36-.617H20z" transform="translate(-1097.000000, -1720.000000) translate(-1.000000, 1701.000000) translate(1019.000000, 0.000000) translate(79.000000, 19.000000) translate(2.000000, 4.000000)"/>
                        </g>
                    </g>
                </g>
            </g>
        </g>
    </g>
</svg>
