<svg width="200" height="50" viewBox="0 0 200 50" fill="none" xmlns="http://www.w3.org/2000/svg">
  <path fill-rule="evenodd" clip-rule="evenodd"
    d="M90.884 40.87C90.194 41.596 89.314 41.958 88.239 41.958C87.165 41.958 86.279 41.596 85.58 40.87C84.882 40.146 84.533 39.174 84.533 37.956C84.533 36.739 84.882 35.768 85.58 35.042C86.278 34.318 87.165 33.955 88.239 33.955C89.313 33.955 90.195 34.318 90.884 35.042C91.574 35.768 91.918 36.739 91.918 37.956C91.918 39.174 91.574 40.146 90.884 40.87ZM92.321 31.47C91.121 30.835 89.761 30.517 88.239 30.517C86.717 30.517 85.352 30.835 84.143 31.471C82.935 32.107 81.99 32.988 81.31 34.116C80.63 35.244 80.29 36.524 80.29 37.956C80.29 39.389 80.63 40.669 81.31 41.796C81.99 42.926 82.935 43.807 84.143 44.442C85.352 45.078 86.717 45.396 88.239 45.396C89.76 45.396 91.122 45.078 92.321 44.442C93.521 43.807 94.461 42.925 95.141 41.797C95.821 40.669 96.161 39.389 96.161 37.957C96.161 36.524 95.821 35.244 95.141 34.117C94.461 32.987 93.521 32.107 92.321 31.471V31.47ZM160.163 45.181H164.353V30.732H160.163V45.181ZM79.14 41.985C78.916 42.039 78.697 42.065 78.482 42.065C77.908 42.065 77.465 41.9 77.152 41.569C76.839 41.237 76.682 40.768 76.682 40.159V26.059H72.492V40.4C72.492 41.994 72.949 43.225 73.862 44.094C74.775 44.962 76.047 45.396 77.676 45.396C78.428 45.396 79.153 45.279 79.851 45.046L79.663 41.796C79.538 41.869 79.363 41.932 79.14 41.985ZM123.623 5.699C121.406 5.699 119.477 6.489 118.046 7.981C116.641 9.446 115.929 11.411 115.929 13.823V20.967H120.159V13.823C120.159 12.533 120.472 11.563 121.099 10.909C121.725 10.256 122.566 9.929 123.623 9.929C124.573 9.929 125.297 10.211 125.799 10.774C126.299 11.338 126.55 12.194 126.55 13.339V20.967H130.78V13.339C130.78 11.132 130.167 9.324 128.958 7.963C128.04 6.931 126.368 5.699 123.623 5.699ZM66.7 2.462C65.357 1.908 63.863 1.63 62.215 1.63C60.245 1.63 58.473 2.05 56.898 2.892C55.322 3.734 54.091 4.902 53.205 6.397C52.318 7.892 51.875 9.597 51.875 11.513C51.875 13.5 52.305 15.215 53.165 16.656C54.025 18.097 55.179 19.194 56.629 19.946C58.079 20.698 59.673 21.074 61.409 21.074C63.469 21.074 65.151 20.591 66.459 19.624V20.752H69.735V11.056H65.76V16.159C64.72 17.019 63.44 17.449 61.919 17.449C60.899 17.449 59.959 17.22 59.099 16.763C58.239 16.307 57.554 15.631 57.044 14.736C56.534 13.841 56.279 12.758 56.279 11.486C56.279 10.269 56.539 9.195 57.058 8.263C57.577 7.333 58.302 6.612 59.233 6.101C60.164 5.591 61.229 5.336 62.429 5.336C64.327 5.336 65.947 6.044 67.29 7.458L70.083 4.88C69.17 3.823 68.044 3.018 66.7 2.462ZM86.494 13.098C86.53 11.898 86.879 10.958 87.541 10.278C88.204 9.598 89.063 9.257 90.12 9.257C90.979 9.257 91.713 9.481 92.322 9.928C92.93 10.376 93.333 10.976 93.53 11.728L86.494 13.098ZM96.579 9.485C95.907 8.385 95.008 7.543 93.879 6.961C92.752 6.379 91.499 6.088 90.119 6.088C88.651 6.088 87.331 6.406 86.159 7.042C84.985 7.677 84.063 8.564 83.392 9.701C82.721 10.837 82.385 12.113 82.385 13.527C82.385 14.96 82.725 16.24 83.405 17.367C84.085 18.497 85.053 19.377 86.306 20.013C87.559 20.649 89.001 20.967 90.63 20.967C93.244 20.967 95.23 20.187 96.592 18.63L94.362 16.213C93.862 16.696 93.32 17.05 92.738 17.273C92.156 17.498 91.489 17.61 90.738 17.61C89.788 17.61 88.988 17.43 88.334 17.072C87.68 16.714 87.201 16.177 86.897 15.461L97.586 13.393C97.586 11.889 97.25 10.586 96.579 9.485ZM149.103 25.71C147.827 25.71 146.696 25.934 145.712 26.38C144.728 26.827 143.907 27.488 143.25 28.363V26.038H138.957V45.181H143.387V34.406C143.387 32.784 143.793 31.558 144.604 30.729C145.415 29.899 146.496 29.484 147.844 29.484C149.121 29.484 150.119 29.872 150.839 30.646C151.559 31.421 151.919 32.574 151.919 34.106V45.18H156.349V33.97C156.349 31.327 155.712 29.29 154.436 27.858C153.159 26.427 151.382 25.711 149.103 25.711V25.71ZM108.65 37.876C108.65 39.166 108.345 40.136 107.737 40.79C107.127 41.444 106.322 41.77 105.32 41.77C103.368 41.77 102.392 40.607 102.392 38.28V30.732H98.202V38.896C98.202 41.046 98.757 42.666 99.868 43.757C100.978 44.85 102.482 45.397 104.38 45.397C105.275 45.397 106.107 45.23 106.877 44.899C107.647 44.568 108.31 44.089 108.865 43.462V45.182H112.839V30.732H108.649L108.65 37.876ZM102.768 13.098C102.804 11.898 103.153 10.958 103.816 10.278C104.478 9.598 105.337 9.257 106.394 9.257C107.254 9.257 107.987 9.481 108.596 9.928C109.204 10.376 109.607 10.976 109.805 11.728L102.768 13.098ZM112.853 9.485C112.181 8.385 111.282 7.543 110.153 6.961C109.026 6.379 107.772 6.088 106.393 6.088C104.926 6.088 103.605 6.406 102.433 7.042C101.259 7.677 100.338 8.564 99.666 9.701C98.995 10.837 98.659 12.113 98.659 13.527C98.659 14.96 98.999 16.24 99.679 17.367C100.359 18.497 101.327 19.377 102.58 20.013C103.833 20.649 105.275 20.967 106.904 20.967C109.518 20.967 111.505 20.187 112.866 18.63L110.637 16.213C110.135 16.696 109.594 17.05 109.012 17.273C108.43 17.498 107.763 17.61 107.012 17.61C106.062 17.61 105.262 17.43 104.608 17.072C103.954 16.714 103.475 16.177 103.171 15.461L113.86 13.393C113.86 11.889 113.524 10.586 112.853 9.485ZM189.956 34.492C190.618 33.812 191.477 33.472 192.534 33.472C193.394 33.472 194.127 33.696 194.736 34.142C195.345 34.591 195.748 35.19 195.945 35.942L188.909 37.312C188.944 36.112 189.293 35.172 189.956 34.492ZM195.152 41.488C194.571 41.712 193.904 41.824 193.152 41.824C192.202 41.824 191.402 41.645 190.748 41.287C190.094 40.929 189.615 40.392 189.311 39.675L200 37.607C200 36.104 199.665 34.801 198.993 33.7C198.321 32.599 197.422 31.757 196.294 31.175C195.166 30.594 193.912 30.302 192.534 30.302C191.066 30.302 189.745 30.62 188.573 31.256C187.4 31.892 186.478 32.778 185.807 33.915C185.135 35.052 184.799 36.327 184.799 37.742C184.799 39.174 185.139 40.454 185.82 41.582C186.5 42.71 187.467 43.592 188.72 44.227C189.973 44.863 191.415 45.181 193.044 45.181C195.659 45.181 197.646 44.402 199.006 42.844L196.778 40.428C196.276 40.911 195.734 41.265 195.152 41.488ZM76.682 13.93C76.682 12.587 77.022 11.58 77.702 10.909C78.382 10.237 79.322 9.902 80.522 9.902C80.684 9.902 80.997 9.919 81.462 9.955V6.088C80.352 6.088 79.372 6.267 78.522 6.625C77.672 6.984 76.995 7.511 76.494 8.21V6.303H72.492V20.967H76.682V13.93ZM125.624 40.87C124.925 41.596 124.048 41.958 122.991 41.958C121.917 41.958 121.031 41.596 120.332 40.87C119.634 40.146 119.285 39.174 119.285 37.956C119.285 36.739 119.635 35.768 120.332 35.042C121.031 34.318 121.917 33.955 122.992 33.955C124.048 33.955 124.925 34.318 125.624 35.042C126.322 35.768 126.671 36.739 126.671 37.956C126.671 39.174 126.321 40.146 125.624 40.87ZM126.59 32.263C125.552 31.099 124.11 30.517 122.266 30.517C120.906 30.517 119.675 30.822 118.573 31.43C117.473 32.04 116.608 32.907 115.982 34.036C115.355 35.163 115.042 36.471 115.042 37.956C115.042 39.443 115.355 40.75 115.982 41.878C116.608 43.006 117.472 43.874 118.573 44.483C119.675 45.091 120.905 45.396 122.266 45.396C124.236 45.396 125.74 44.769 126.778 43.516V45.181H130.78V26.06H126.59V32.263ZM41.082 26.91H9.472C5.415 26.91 2.115 23.61 2.115 19.552C2.115 16.408 4.111 13.612 7.081 12.595L7.879 12.322L7.789 11.482C7.776 11.352 7.769 11.207 7.769 11.038C7.769 8.108 10.153 5.725 13.083 5.725C14.078 5.725 15.049 6.002 15.891 6.528L16.733 7.052L17.31 6.246C19.164 3.659 22.168 2.115 25.345 2.115C30.097 2.115 34.179 5.497 35.051 10.158L35.343 11.72L36.671 10.848C37.191 10.505 37.798 10.324 38.425 10.324C40.19 10.324 41.625 11.759 41.625 13.524C41.625 13.858 41.575 14.187 41.472 14.503L41.111 15.618L42.256 15.863C44.811 16.41 46.666 18.706 46.666 21.323C46.666 24.403 44.161 26.91 41.082 26.91ZM38.224 35.11L38.256 34.99C38.529 34.008 39.063 33.556 39.195 33.543C39.326 33.629 39.551 34.292 39.279 35.272L38.805 36.807L40.225 36.389C40.263 36.377 40.302 36.367 40.341 36.357C41.328 36.102 41.986 36.339 42.064 36.447C42.055 36.604 41.594 37.13 40.607 37.385L39.042 37.745L40.115 38.763C40.144 38.789 40.172 38.817 40.2 38.846C40.914 39.573 41.038 40.262 40.984 40.383C40.843 40.453 40.157 40.318 39.444 39.591C39.414 39.561 39.386 39.531 39.359 39.501L38.359 38.413L37.974 39.969C37.701 40.951 37.166 41.403 37.034 41.416C36.903 41.33 36.678 40.666 36.95 39.686L37.425 38.152L36.005 38.57L35.888 38.602C34.901 38.857 34.243 38.62 34.166 38.512C34.174 38.355 34.636 37.829 35.628 37.573C35.665 37.563 35.703 37.554 35.74 37.546L37.188 37.226L36.118 36.2C36.089 36.172 36.06 36.145 36.028 36.112C35.315 35.385 35.191 34.696 35.246 34.576C35.388 34.506 36.073 34.642 36.789 35.371C36.817 35.399 36.844 35.428 36.87 35.457L37.871 36.545L38.224 35.11ZM25.902 39.658C25.551 40.662 25.049 41.512 24.475 42.054L23.29 43.174L24.92 43.194C25.71 43.204 26.656 43.489 27.594 43.989C26.548 44.188 25.562 44.177 24.806 43.952L23.243 43.486L24.041 44.908C24.427 45.598 24.653 46.558 24.689 47.621C23.995 46.815 23.511 45.955 23.329 45.187L22.95 43.6L22.117 45.002C21.714 45.682 20.995 46.357 20.092 46.92C20.443 45.916 20.945 45.066 21.519 44.524L22.704 43.404L21.072 43.383C20.283 43.373 19.338 43.089 18.399 42.588C19.445 42.391 20.432 42.401 21.189 42.627L22.752 43.092L21.954 41.67C21.567 40.981 21.341 40.021 21.304 38.957C21.999 39.764 22.484 40.623 22.667 41.391L23.045 42.977L23.878 41.576C24.281 40.896 24.999 40.221 25.902 39.658ZM14.038 33.143C14.146 33.186 14.498 33.363 14.478 33.823L14.428 35.016L15.62 34.944C16.08 34.919 16.264 35.264 16.31 35.371C16.355 35.478 16.477 35.851 16.138 36.163L15.26 36.971L16.153 37.763C16.498 38.068 16.383 38.443 16.339 38.552C16.296 38.66 16.119 39.003 15.659 38.992L14.466 38.942L14.537 40.133C14.565 40.593 14.218 40.777 14.111 40.823C14.004 40.867 13.631 40.99 13.319 40.651L12.511 39.773L11.719 40.667C11.414 41.011 11.038 40.897 10.93 40.852C10.823 40.809 10.472 40.631 10.491 40.172L10.541 38.978L9.349 39.051C8.884 39.079 8.705 38.731 8.659 38.624C8.614 38.517 8.492 38.144 8.83 37.832L9.71 37.024L8.815 36.232C8.471 35.927 8.586 35.552 8.63 35.443C8.673 35.336 8.847 34.99 9.31 35.004L10.504 35.054L10.431 33.862C10.403 33.402 10.751 33.218 10.858 33.172C10.964 33.127 11.338 33.005 11.65 33.344L12.459 34.222L13.249 33.328C13.555 32.985 13.93 33.099 14.038 33.143ZM25.173 31.755C25.359 31.828 25.568 31.909 25.802 32.003C27.041 32.501 27.334 33.199 27.458 33.815C27.538 34.211 27.656 34.589 27.839 35.013C27.769 35.003 27.702 34.991 27.634 34.978C27.574 34.968 27.517 34.956 27.45 34.941L27.356 34.919L27.257 34.896L27.184 34.876C27.148 34.866 27.112 34.857 27.078 34.846L26.951 34.806C26.908 34.792 26.867 34.778 26.811 34.756C26.736 34.73 26.662 34.7 26.593 34.67C26.543 34.649 26.493 34.625 26.445 34.602L26.388 34.575C26.341 34.552 26.293 34.527 26.235 34.495C26.178 34.465 26.123 34.433 26.058 34.392C25.994 34.354 25.931 34.314 25.878 34.278L25.839 34.252C25.791 34.218 25.742 34.184 25.684 34.14C25.618 34.092 25.553 34.04 25.491 33.99C25.431 33.941 25.371 33.89 25.311 33.838C25.038 33.596 24.641 33.078 24.409 32.369C24.406 32.059 24.405 31.748 24.404 31.437C24.634 31.542 24.884 31.644 25.173 31.755ZM43.711 14.086C43.731 13.9 43.741 13.712 43.741 13.523C43.741 10.593 41.356 8.209 38.425 8.209C37.871 8.209 37.327 8.295 36.808 8.46C35.284 3.486 30.66 0 25.345 0C21.799 0 18.432 1.584 16.163 4.278C15.201 3.839 14.151 3.61 13.083 3.61C9.039 3.61 5.739 6.858 5.656 10.883C2.243 12.38 0 15.77 0 19.553C0 24.776 4.25 29.025 9.473 29.025H11.522V31.563C11.1 31.491 10.657 31.535 10.237 31.713C9.493 32.03 8.991 32.683 8.872 33.453C8.106 33.587 7.461 34.101 7.158 34.85C6.856 35.6 6.964 36.417 7.423 37.046C6.976 37.682 6.883 38.501 7.2 39.246C7.517 39.989 8.17 40.49 8.94 40.61C9.074 41.376 9.587 42.02 10.338 42.324C10.621 42.438 10.915 42.494 11.204 42.494C11.679 42.494 12.142 42.344 12.532 42.059C13.169 42.506 13.988 42.599 14.732 42.281C15.476 41.965 15.978 41.311 16.097 40.543C16.863 40.408 17.508 39.895 17.811 39.145C18.113 38.395 18.004 37.578 17.546 36.949C17.993 36.313 18.085 35.494 17.768 34.75C17.452 34.006 16.798 33.505 16.029 33.385C15.895 32.619 15.381 31.975 14.632 31.672C14.218 31.505 13.784 31.468 13.372 31.541V29.025H22.494C22.474 29.764 22.457 30.502 22.451 31.24C22.45 32.33 22.434 33.421 22.443 34.512C22.449 35.602 22.466 36.694 22.489 37.784C22.491 37.969 22.494 38.153 22.499 38.337C22.244 38.022 21.969 37.71 21.661 37.411C21.382 37.141 20.983 37.06 20.619 37.202C20.255 37.344 20.016 37.674 19.994 38.062C19.932 39.182 20.044 40.238 20.313 41.142C19.371 41.078 18.317 41.2 17.239 41.507C16.865 41.613 16.596 41.919 16.537 42.305C16.478 42.691 16.644 43.063 16.969 43.275C17.908 43.89 18.878 44.321 19.795 44.54C19.269 45.323 18.849 46.297 18.575 47.385C18.48 47.761 18.609 48.147 18.915 48.391C19.219 48.634 19.623 48.678 19.972 48.503C20.972 47.996 21.832 47.373 22.479 46.687C22.894 47.534 23.528 48.386 24.333 49.167C24.521 49.349 24.763 49.445 25.011 49.445C25.133 49.445 25.256 49.422 25.375 49.375C25.739 49.234 25.978 48.905 26 48.516C26.062 47.396 25.95 46.34 25.681 45.436C26.623 45.503 27.676 45.378 28.755 45.071C29.129 44.965 29.398 44.659 29.457 44.273C29.516 43.887 29.35 43.515 29.025 43.303C28.086 42.688 27.116 42.257 26.199 42.038C26.725 41.255 27.145 40.281 27.419 39.193C27.514 38.816 27.385 38.431 27.079 38.187C26.775 37.942 26.369 37.9 26.022 38.075C25.388 38.396 24.82 38.768 24.318 39.169C24.349 38.707 24.359 38.246 24.365 37.784C24.385 36.904 24.395 36.025 24.402 35.145C24.432 35.17 24.458 35.194 24.488 35.218C24.574 35.288 24.659 35.355 24.734 35.41C24.798 35.46 24.864 35.506 24.931 35.552L25.033 35.621C25.101 35.665 25.167 35.707 25.229 35.744C25.316 35.799 25.402 35.848 25.477 35.888C25.553 35.93 25.629 35.97 25.705 36.007C25.735 36.023 25.765 36.037 25.795 36.049C25.851 36.076 25.909 36.103 25.97 36.129C26.072 36.172 26.174 36.213 26.262 36.245C26.328 36.27 26.395 36.293 26.463 36.315L26.59 36.355C26.643 36.372 26.698 36.388 26.753 36.402L26.852 36.429C26.902 36.442 26.953 36.455 27.005 36.466L27.107 36.49C27.191 36.509 27.275 36.526 27.354 36.54C27.754 36.613 28.184 36.66 28.676 36.682L28.72 36.683C29.084 36.683 29.427 36.495 29.622 36.183C29.824 35.86 29.837 35.451 29.656 35.113C29.294 34.445 29.108 33.979 29.013 33.503C28.91 32.987 28.593 31.416 26.393 30.531C26.153 30.434 25.938 30.351 25.746 30.277C24.631 29.845 24.626 29.827 24.47 29.363C24.453 29.311 24.425 29.187 24.394 29.025H36.28V33.16C36.22 33.138 36.161 33.115 36.102 33.097C35.321 32.858 34.609 32.982 34.146 33.436C33.683 33.89 33.546 34.6 33.771 35.385C33.868 35.724 34.029 36.07 34.242 36.403C33.887 36.579 33.572 36.793 33.313 37.033C32.717 37.589 32.467 38.268 32.629 38.895C32.791 39.523 33.338 39.996 34.129 40.195C34.471 40.28 34.852 40.313 35.246 40.295C35.221 40.692 35.248 41.072 35.327 41.415C35.511 42.21 35.974 42.765 36.599 42.939C36.732 42.976 36.869 42.994 37.009 42.994C37.512 42.994 38.029 42.75 38.474 42.289C38.718 42.036 38.937 41.724 39.12 41.372C39.45 41.592 39.793 41.759 40.13 41.862C40.91 42.1 41.623 41.977 42.085 41.523C42.548 41.069 42.685 40.359 42.46 39.573C42.363 39.235 42.203 38.89 41.99 38.556C42.344 38.38 42.66 38.166 42.918 37.926C43.515 37.37 43.764 36.691 43.602 36.063C43.441 35.436 42.893 34.963 42.102 34.765C41.761 34.679 41.382 34.645 40.985 34.663C41.01 34.268 40.983 33.887 40.905 33.544C40.721 32.749 40.257 32.193 39.633 32.02C39.141 31.882 38.611 32.005 38.131 32.35V29.025H41.083C45.328 29.025 48.782 25.57 48.782 21.324C48.782 18.071 46.703 15.177 43.712 14.086H43.711ZM175.441 29.914C173.223 29.914 171.295 30.703 169.864 32.195C168.459 33.66 167.747 35.625 167.747 38.037V45.181H171.977V38.037C171.977 36.747 172.289 35.777 172.917 35.123C173.543 34.47 174.384 34.143 175.441 34.143C176.389 34.143 177.115 34.425 177.616 34.989C178.117 35.553 178.368 36.409 178.368 37.554V45.181H182.598V37.554C182.598 35.346 181.985 33.538 180.776 32.178C179.857 31.145 178.186 29.914 175.441 29.914ZM59.448 30.531C60.361 30.021 61.399 29.765 62.563 29.765C64.443 29.765 66.018 30.5 67.29 31.968L70.083 29.389C69.187 28.315 68.083 27.492 66.766 26.919C65.45 26.346 63.977 26.059 62.348 26.059C60.415 26.059 58.673 26.475 57.125 27.309C55.575 28.14 54.358 29.295 53.472 30.773C52.586 32.25 52.143 33.919 52.143 35.781C52.143 37.644 52.586 39.313 53.473 40.79C54.358 42.267 55.576 43.422 57.125 44.254C58.673 45.087 60.405 45.504 62.321 45.504C63.951 45.504 65.428 45.217 66.753 44.644C68.077 44.071 69.187 43.239 70.083 42.146L67.29 39.568C66.018 41.054 64.443 41.797 62.563 41.797C61.399 41.797 60.361 41.542 59.448 41.032C58.535 40.522 57.823 39.81 57.313 38.896C56.803 37.984 56.547 36.946 56.547 35.781C56.547 34.617 56.802 33.579 57.313 32.666C57.823 31.753 58.535 31.041 59.448 30.531ZM164.138 25.112C163.655 24.682 163.028 24.468 162.258 24.468C161.488 24.468 160.862 24.692 160.378 25.139C159.895 25.587 159.653 26.142 159.653 26.804C159.653 27.467 159.895 28.022 160.378 28.469C160.862 28.917 161.488 29.141 162.258 29.141C163.028 29.141 163.655 28.912 164.138 28.456C164.622 27.999 164.864 27.422 164.864 26.724C164.864 26.079 164.622 25.542 164.138 25.112Z"
    fill="#5B8D31" />
</svg>