<svg width="25" height="25" viewBox="0 0 25 25" fill="none" xmlns="http://www.w3.org/2000/svg">
<path d="M17.188 3.125C15.375 3.125 13.635 3.969 12.5 5.302C11.365 3.969 9.62501 3.125 7.81201 3.125C4.60401 3.125 2.08301 5.645 2.08301 8.855C2.08301 12.792 5.62501 16 10.99 20.875L12.5 22.24L14.01 20.865C19.375 16 22.917 12.792 22.917 8.855C22.917 5.645 20.396 3.125 17.187 3.125H17.188ZM12.604 19.323L12.5 19.427L12.396 19.323C7.43701 14.833 4.16601 11.865 4.16601 8.854C4.16601 6.771 5.72901 5.208 7.81201 5.208C9.41701 5.208 10.979 6.24 11.532 7.667H13.479C14.021 6.24 15.583 5.208 17.188 5.208C19.271 5.208 20.833 6.771 20.833 8.854C20.833 11.864 17.563 14.834 12.604 19.323Z" fill="#5E5855"/>
</svg>
