<svg xmlns="http://www.w3.org/2000/svg" x="0px" y="0px"
width="50" height="50"
viewBox="0 0 172 172"
style=" fill:#000000;"><g fill="none" fill-rule="nonzero" stroke="none" stroke-width="1" stroke-linecap="butt" stroke-linejoin="miter" stroke-miterlimit="10" stroke-dasharray="" stroke-dashoffset="0" font-family="none" font-weight="none" font-size="none" text-anchor="none" style="mix-blend-mode: normal"><path d="M0,172v-172h172v172z" fill="none"></path><g fill="#7a972b"><path d="M86,16.125c-38.52901,0 -69.875,31.34599 -69.875,69.875c-0.00973,19.144 7.85678,37.44889 21.75261,50.61699v-0.99469c0,-26.53503 21.58736,-48.12305 48.12239,-48.12305c26.53503,0 48.12239,21.58802 48.12239,48.12305v0.99469c13.89583,-13.1681 21.76234,-31.47299 21.75261,-50.61699c0,-38.52901 -31.34599,-69.875 -69.875,-69.875zM85.07223,31.98558c7.06928,-0.29437 13.95264,2.30824 19.05871,7.20613c5.10607,4.89789 7.9928,11.66701 7.99279,18.74242c-0.01692,14.33629 -11.63456,25.95393 -25.97085,25.97085c-14.13193,-0.00117 -25.66914,-11.30168 -25.96322,-25.43055c-0.29408,-14.12887 10.76293,-25.89966 24.88257,-26.48885zM86.15288,38.68202c-7.78683,-0.00006 -14.80695,4.69058 -17.78686,11.88466c-2.97992,7.19408 -1.33279,15.47485 4.17333,20.98097c5.50612,5.50612 13.78689,7.15325 20.98097,4.17334c7.19408,-2.97992 11.88472,-10.00003 11.88467,-17.78686c-0.01192,-10.6277 -8.6244,-19.24018 -19.2521,-19.25211zM86,94.218c-22.85611,0.02591 -41.37809,18.54818 -41.40364,41.4043v6.62755c24.61372,18.16689 58.19487,18.16689 82.80859,0v-6.62755c-0.02555,-22.85663 -18.54833,-41.37911 -41.40495,-41.4043z"></path></g></g></svg>